<svg xmlns="http://www.w3.org/2000/svg" viewBox="0 0 1600 1000" width="1600" height="1000" role="img">
  <defs>
    <linearGradient id="bg" x1="0" y1="0" x2="1" y2="1">
      <stop offset="0" stop-color="#0F0F0F"/>
      <stop offset="1" stop-color="#1A1A1A"/>
    </linearGradient>
    <radialGradient id="glow" cx="0.5" cy="0.42" r="0.62">
      <stop offset="0" stop-color="#E8510A" stop-opacity="0.16"/>
      <stop offset="1" stop-color="#E8510A" stop-opacity="0"/>
    </radialGradient>
    <radialGradient id="glowGreen" cx="0.5" cy="0.42" r="0.62">
      <stop offset="0" stop-color="#5A9E28" stop-opacity="0.14"/>
      <stop offset="1" stop-color="#5A9E28" stop-opacity="0"/>
    </radialGradient>
    <pattern id="dots" width="44" height="44" patternUnits="userSpaceOnUse">
      <circle cx="2" cy="2" r="1.4" fill="#ffffff" opacity="0.05"/>
    </pattern>
    <linearGradient id="strokeGrad" x1="0" y1="0" x2="1" y2="0">
      <stop offset="0" stop-color="#E8510A"/>
      <stop offset="1" stop-color="#5A9E28"/>
    </linearGradient>
  </defs>
  <rect width="1600" height="1000" fill="url(#bg)"/>
  <rect width="1600" height="1000" fill="url(#glow)"/>
  <rect width="1600" height="1000" fill="url(#dots)"/>
  <rect width="1600" height="1000" fill="none" stroke="#ffffff" stroke-opacity="0.06" stroke-width="1.5"/>
  <g transform="translate(80 88)">
    <text x="0" y="0" font-family="'JetBrains Mono', Menlo, monospace" font-size="22" letter-spacing="6" fill="#ffffff" opacity="0.55" text-transform="uppercase">DS / 03 — Governance</text>
    <rect x="0" y="14" width="64" height="3" fill="url(#strokeGrad)"/>
  </g>
  
  <g transform="translate(800 520)">
    <rect x="-330" y="-330" width="660" height="660" fill="none" stroke="#E8510A" stroke-width="2" opacity="0.15"/>
    <rect x="-250" y="-250" width="500" height="500" fill="none" stroke="#E8510A" stroke-width="2" opacity="0.3"/>
    <rect x="-168" y="-168" width="336" height="336" fill="none" stroke="url(#strokeGrad)" stroke-width="3"/>
    <rect x="-168" y="-168" width="336" height="336" fill="#E8510A" opacity="0.07"/>
    <g stroke="#5A9E28" stroke-width="2" opacity="0.55">
      <line x1="-168" y1="0" x2="168" y2="0"/>
      <line x1="0" y1="-168" x2="0" y2="168"/>
    </g>
    <circle cx="0" cy="0" r="26" fill="#E8510A"/>
    <g transform="translate(-330 470)">
      <rect x="0" y="-40" width="150" height="40" fill="none" stroke="#5A9E28" stroke-width="2.5" opacity="0.5" rx="4"/>
      <rect x="190" y="-62" width="150" height="62" fill="none" stroke="#E8510A" stroke-width="2.5" opacity="0.5" rx="4"/>
      <rect x="380" y="-84" width="150" height="84" fill="none" stroke="#5A9E28" stroke-width="2.5" opacity="0.5" rx="4"/>
      <rect x="570" y="-106" width="150" height="106" fill="none" stroke="#E8510A" stroke-width="2.5" opacity="0.5" rx="4"/>
    </g>
  </g>
  <text x="80" y="940" font-family="'JetBrains Mono', Menlo, monospace" font-size="18" letter-spacing="4" fill="#ffffff" opacity="0.28">DENI SAWA PARTNERS · WWW.DENISAWA.CO.KE</text>
</svg>