<svg xmlns="http://www.w3.org/2000/svg" viewBox="0 0 1600 1000" width="1600" height="1000" role="img">
  <defs>
    <linearGradient id="bg" x1="0" y1="0" x2="1" y2="1">
      <stop offset="0" stop-color="#0F0F0F"/>
      <stop offset="1" stop-color="#1A1A1A"/>
    </linearGradient>
    <radialGradient id="glow" cx="0.5" cy="0.42" r="0.62">
      <stop offset="0" stop-color="#E8510A" stop-opacity="0.16"/>
      <stop offset="1" stop-color="#E8510A" stop-opacity="0"/>
    </radialGradient>
    <radialGradient id="glowGreen" cx="0.5" cy="0.42" r="0.62">
      <stop offset="0" stop-color="#5A9E28" stop-opacity="0.14"/>
      <stop offset="1" stop-color="#5A9E28" stop-opacity="0"/>
    </radialGradient>
    <pattern id="dots" width="44" height="44" patternUnits="userSpaceOnUse">
      <circle cx="2" cy="2" r="1.4" fill="#ffffff" opacity="0.05"/>
    </pattern>
    <linearGradient id="strokeGrad" x1="0" y1="0" x2="1" y2="0">
      <stop offset="0" stop-color="#E8510A"/>
      <stop offset="1" stop-color="#5A9E28"/>
    </linearGradient>
  </defs>
  <rect width="1600" height="1000" fill="url(#bg)"/>
  <rect width="1600" height="1000" fill="url(#glow)"/>
  <rect width="1600" height="1000" fill="url(#dots)"/>
  <rect width="1600" height="1000" fill="none" stroke="#ffffff" stroke-opacity="0.06" stroke-width="1.5"/>
  <g transform="translate(80 88)">
    <text x="0" y="0" font-family="'JetBrains Mono', Menlo, monospace" font-size="22" letter-spacing="6" fill="#ffffff" opacity="0.55" text-transform="uppercase">DS / 01 — Diagnose</text>
    <rect x="0" y="14" width="64" height="3" fill="url(#strokeGrad)"/>
  </g>
  
  <g transform="translate(800 500)">
    <circle cx="0" cy="0" r="340" fill="none" stroke="#E8510A" stroke-width="2" opacity="0.2"/>
    <circle cx="0" cy="0" r="252" fill="none" stroke="#E8510A" stroke-width="2" opacity="0.35"/>
    <circle cx="0" cy="0" r="168" fill="none" stroke="#E8510A" stroke-width="2.5" opacity="0.6"/>
    <circle cx="0" cy="0" r="96" fill="#E8510A" opacity="0.12"/>
    <circle cx="0" cy="0" r="34" fill="#E8510A"/>
    <circle cx="0" cy="0" r="14" fill="#F9F7F5"/>
    <g stroke="#5A9E28" stroke-width="2" opacity="0.5">
      <line x1="-470" y1="-300" x2="-220" y2="-140"/>
      <line x1="-470" y1="-180" x2="-240" y2="-60"/>
      <line x1="-470" y1="-60" x2="-260" y2="20"/>
      <line x1="-470" y1="60" x2="-300" y2="80"/>
    </g>
  </g>
  <text x="80" y="940" font-family="'JetBrains Mono', Menlo, monospace" font-size="18" letter-spacing="4" fill="#ffffff" opacity="0.28">DENI SAWA PARTNERS · WWW.DENISAWA.CO.KE</text>
</svg>